<?xml version="1.0" encoding="UTF-8" standalone="no" ?>
<!DOCTYPE svg PUBLIC "-//W3C//DTD SVG 1.1//EN" "http://www.w3.org/Graphics/SVG/1.1/DTD/svg11.dtd">
<svg xmlns="http://www.w3.org/2000/svg" xmlns:xlink="http://www.w3.org/1999/xlink" version="1.1" width="800" height="418" viewBox="0 0 800 418" xml:space="preserve">
<desc>Created with Fabric.js 4.6.0</desc>
<defs>
</defs>
<g transform="matrix(0 0 0 0 115 178)" id="QhGQTCLROZUXkddBcQc6O"  >
<path style="stroke: none; stroke-width: 1; stroke-dasharray: none; stroke-linecap: butt; stroke-dashoffset: 0; stroke-linejoin: miter; stroke-miterlimit: 4; fill: rgb(0,0,0); fill-rule: nonzero; opacity: 1;" vector-effect="non-scaling-stroke"  transform=" translate(-6399.87, -6398.93)" d="M 6095 12794 C 6068 12792 5980 12786 5900 12780 C 4639 12687 3396 12196 2400 11396 C 1946 11031 1525 10586 1185 10109 C -105 8301 -360 5940 512 3888 C 587 3712 744 3397 840 3230 C 1595 1916 2767 922 4183 396 C 5106 53 6120 -70 7110 40 C 8412 186 9618 717 10615 1584 C 10863 1800 11196 2149 11416 2426 C 12955 4358 13235 7042 12129 9252 C 11346 10818 9970 11990 8305 12511 C 7877 12645 7447 12730 6965 12776 C 6815 12790 6209 12803 6095 12794 z M 6885 10169 C 6932 10147 6993 10086 7013 10042 C 7022 10021 7026 9657 7030 8525 L 7035 7035 L 8525 7030 C 9657 7026 10021 7022 10042 7013 C 10086 6993 10147 6932 10169 6885 C 10189 6842 10190 6826 10190 6409 C 10190 6107 10186 5966 10178 5938 C 10163 5889 10102 5818 10053 5794 C 10016 5776 9957 5775 8525 5770 L 7035 5765 L 7030 4275 C 7026 3143 7022 2779 7013 2758 C 6993 2714 6932 2653 6885 2631 C 6842 2611 6826 2610 6400 2610 C 5974 2610 5958 2611 5915 2631 C 5868 2653 5807 2714 5787 2758 C 5778 2779 5774 3143 5770 4275 L 5765 5765 L 4275 5770 C 3143 5774 2779 5778 2758 5787 C 2714 5807 2653 5868 2631 5915 C 2611 5958 2610 5974 2610 6400 C 2610 6756 2613 6847 2624 6874 C 2643 6920 2703 6984 2748 7006 C 2783 7024 2850 7025 4275 7030 L 5765 7035 L 5770 8525 C 5775 9930 5776 10017 5793 10051 C 5816 10097 5865 10144 5915 10169 C 5953 10188 5977 10189 6398 10190 C 6827 10190 6842 10189 6885 10169 z" stroke-linecap="round" />
</g>
<g transform="matrix(0.02 0 0 -0.02 124 210)" id="G_bXc7EeHNfMlI1q99p0Y"  >
<path style="stroke: none; stroke-width: 1; stroke-dasharray: none; stroke-linecap: butt; stroke-dashoffset: 0; stroke-linejoin: miter; stroke-miterlimit: 4; fill: rgb(0,0,0); fill-rule: nonzero; opacity: 0.99;" vector-effect="non-scaling-stroke"  transform=" translate(-6229.3, -6400)" d="M 0 12182 C 0 11401 15 10924 56 10350 C 293 7018 1300 4283 3020 2300 C 3279 2002 3547 1731 3860 1449 C 4556 824 5433 273 6088 49 L 6230 1 L 6373 49 C 6850 212 7469 561 8035 988 C 9380 2000 10468 3428 11217 5165 C 11869 6676 12267 8416 12404 10350 C 12446 10934 12462 11506 12458 12242 L 12455 12798 L 12105 12643 C 11584 12413 11381 12327 11112 12223 C 10207 11874 9475 11680 9065 11680 C 8565 11680 7504 11995 6448 12457 L 6230 12552 L 6043 12470 C 5642 12294 5233 12137 4820 11999 C 4051 11743 3561 11649 3210 11689 C 2888 11726 2490 11826 1969 12000 C 1484 12162 1147 12294 545 12560 C 331 12655 120 12747 78 12766 L 0 12799 L 0 12182 z M 6367 11269 C 7608 10772 8574 10525 9160 10554 C 9516 10572 9924 10651 10440 10803 C 10613 10854 11078 11008 11238 11068 L 11321 11099 L 11315 10977 C 11266 10027 11188 9314 11049 8542 C 10604 6075 9629 4049 8195 2615 C 7623 2043 7013 1592 6393 1281 L 6232 1200 L 6163 1232 C 5957 1328 5666 1495 5430 1653 C 4017 2597 2877 4079 2145 5925 C 1679 7098 1372 8418 1226 9870 C 1189 10230 1174 10440 1144 10982 L 1138 11099 L 1222 11068 C 1378 11009 1845 10854 2020 10803 C 2325 10713 2638 10638 2845 10605 C 2900 10597 2972 10585 3005 10580 C 3038 10575 3138 10565 3228 10558 C 3601 10531 4058 10600 4697 10781 C 5047 10880 5670 11098 6080 11264 C 6154 11294 6221 11319 6227 11320 C 6234 11320 6297 11297 6367 11269 z" stroke-linecap="round" />
</g>
<g transform="matrix(1.56 0 0 1.52 134 238)" id="dbxLI0JvUyzqK92B9y-sF"  >
<path style="stroke: none; stroke-width: 1; stroke-dasharray: none; stroke-linecap: butt; stroke-dashoffset: 0; stroke-linejoin: miter; stroke-miterlimit: 4; fill: rgb(232,190,172); fill-rule: nonzero; opacity: 1;" vector-effect="non-scaling-stroke"  transform=" translate(-35.42, -47.56)" d="M 60.67 43.1701 C 60.4515 42.6213 60.1259 42.1215 59.7123 41.6998 C 59.2986 41.2781 58.8051 40.943 58.2606 40.714 C 57.7161 40.4851 57.1314 40.3668 56.5407 40.3661 C 55.95 40.3654 55.365 40.4824 54.82 40.7101 L 42.09 45.2001 C 42.1336 44.9491 42.157 44.6949 42.16 44.4401 C 42.16 43.3041 41.7094 42.2144 40.907 41.4102 C 40.1047 40.6059 39.016 40.1528 37.88 40.1501 L 30.68 40.1501 C 30.3064 40.1508 29.9386 40.0579 29.61 39.8801 L 22.71 36.2301 C 22.0926 35.908 21.4064 35.7399 20.71 35.7401 L 10.81 35.7401 C 10.5448 35.7401 10.2904 35.8455 10.1029 36.033 C 9.91535 36.2205 9.81 36.4749 9.81 36.7401 L 9.81 53.4001 C 9.81 53.6653 9.91535 53.9197 10.1029 54.1072 C 10.2904 54.2948 10.5448 54.4001 10.81 54.4001 L 14.21 54.4001 C 16.1752 54.4005 18.1097 54.8884 19.84 55.8201 L 20.03 55.8901 L 28.35 58.3701 C 29.5835 59.0202 30.9556 59.3633 32.35 59.3701 C 33.6856 59.3687 35.0017 59.0499 36.19 58.4401 L 58.62 48.8501 C 59.6133 48.3346 60.3759 47.4637 60.7559 46.411 C 61.1358 45.3584 61.1051 44.2012 60.67 43.1701 L 60.67 43.1701 Z" stroke-linecap="round" />
</g>
<g transform="matrix(1.82 0 0 1.79 123.5 184)" id="GjGg5v8wtPfWDVcNdgxzP"  >
<path style="stroke: none; stroke-width: 1; stroke-dasharray: none; stroke-linecap: butt; stroke-dashoffset: 0; stroke-linejoin: miter; stroke-miterlimit: 4; fill: rgb(238,40,59); fill-rule: nonzero; opacity: 1;" vector-effect="non-scaling-stroke"  transform=" translate(-43.93, -20.31)" d="M 44.71 5.05006 C 44.6164 4.93145 44.4972 4.8356 44.3612 4.7697 C 44.2252 4.70379 44.0761 4.66956 43.925 4.66956 C 43.7739 4.66956 43.6248 4.70379 43.4888 4.7697 C 43.3529 4.8356 43.2336 4.93145 43.14 5.05006 C 42.71 5.59006 32.66 18.3901 32.66 24.3401 C 32.6151 25.8476 32.8732 27.3489 33.4192 28.7549 C 33.9651 30.1609 34.7876 31.443 35.8381 32.5252 C 36.8886 33.6075 38.1457 34.4679 39.5348 35.0554 C 40.9239 35.643 42.4168 35.9457 43.925 35.9457 C 45.4333 35.9457 46.9262 35.643 48.3153 35.0554 C 49.7044 34.4679 50.9614 33.6075 52.0119 32.5252 C 53.0624 31.443 53.885 30.1609 54.4309 28.7549 C 54.9768 27.3489 55.235 25.8476 55.19 24.3401 C 55.19 18.3901 45.14 5.59006 44.71 5.05006 Z" stroke-linecap="round" />
</g>
<g transform="matrix(1.59 0 0 1.55 88 235.5)" id="seWqtNKnHb6I6oZCstu8Y"  >
<path style="stroke: none; stroke-width: 1; stroke-dasharray: none; stroke-linecap: butt; stroke-dashoffset: 0; stroke-linejoin: miter; stroke-miterlimit: 4; fill: rgb(34,40,49); fill-rule: nonzero; opacity: 1;" vector-effect="non-scaling-stroke"  transform=" translate(-7.4, -44.44)" d="M 10.81 31.1901 L 4 31.1901 C 3.44772 31.1901 3 31.6378 3 32.1901 L 3 56.6901 C 3 57.2423 3.44772 57.6901 4 57.6901 L 10.81 57.6901 C 11.3623 57.6901 11.81 57.2423 11.81 56.6901 L 11.81 32.1901 C 11.81 31.6378 11.3623 31.1901 10.81 31.1901 Z" stroke-linecap="round" />
</g>
<g transform="matrix(0 0 0 0 117 183)" id="RR3aeIYaCyh3lTXAJveiE"  >
<path style="stroke: none; stroke-width: 1; stroke-dasharray: none; stroke-linecap: butt; stroke-dashoffset: 0; stroke-linejoin: miter; stroke-miterlimit: 4; fill: rgb(0,0,0); fill-rule: nonzero; opacity: 1;" vector-effect="non-scaling-stroke"  transform=" translate(-6399.87, -6398.93)" d="M 6095 12794 C 6068 12792 5980 12786 5900 12780 C 4639 12687 3396 12196 2400 11396 C 1946 11031 1525 10586 1185 10109 C -105 8301 -360 5940 512 3888 C 587 3712 744 3397 840 3230 C 1595 1916 2767 922 4183 396 C 5106 53 6120 -70 7110 40 C 8412 186 9618 717 10615 1584 C 10863 1800 11196 2149 11416 2426 C 12955 4358 13235 7042 12129 9252 C 11346 10818 9970 11990 8305 12511 C 7877 12645 7447 12730 6965 12776 C 6815 12790 6209 12803 6095 12794 z M 6885 10169 C 6932 10147 6993 10086 7013 10042 C 7022 10021 7026 9657 7030 8525 L 7035 7035 L 8525 7030 C 9657 7026 10021 7022 10042 7013 C 10086 6993 10147 6932 10169 6885 C 10189 6842 10190 6826 10190 6409 C 10190 6107 10186 5966 10178 5938 C 10163 5889 10102 5818 10053 5794 C 10016 5776 9957 5775 8525 5770 L 7035 5765 L 7030 4275 C 7026 3143 7022 2779 7013 2758 C 6993 2714 6932 2653 6885 2631 C 6842 2611 6826 2610 6400 2610 C 5974 2610 5958 2611 5915 2631 C 5868 2653 5807 2714 5787 2758 C 5778 2779 5774 3143 5770 4275 L 5765 5765 L 4275 5770 C 3143 5774 2779 5778 2758 5787 C 2714 5807 2653 5868 2631 5915 C 2611 5958 2610 5974 2610 6400 C 2610 6756 2613 6847 2624 6874 C 2643 6920 2703 6984 2748 7006 C 2783 7024 2850 7025 4275 7030 L 5765 7035 L 5770 8525 C 5775 9930 5776 10017 5793 10051 C 5816 10097 5865 10144 5915 10169 C 5953 10188 5977 10189 6398 10190 C 6827 10190 6842 10189 6885 10169 z" stroke-linecap="round" />
</g>
<g transform="matrix(0.71 0 0 0.71 124 192)" id="B64l52uZkGqADm18vXtVj"  >
<path style="stroke: none; stroke-width: 1; stroke-dasharray: none; stroke-linecap: butt; stroke-dashoffset: 0; stroke-linejoin: miter; stroke-miterlimit: 4; fill: rgb(76,175,80); fill-rule: nonzero; opacity: 1;" vector-effect="non-scaling-stroke"  transform=" translate(-21, -21)" d="M 0 21 C 0 9.40202 9.40202 0 21 0 C 32.59798 0 42 9.40202 42 21 C 42 32.59798 32.59798 42 21 42 C 9.40202 42 0 32.59798 0 21 z" stroke-linecap="round" />
</g>
<g transform="matrix(0.83 0 0 0.75 123.5 191.5)" id="OGKGKQuACbVauD2jQxbl_"  >
<path style="stroke: none; stroke-width: 1; stroke-dasharray: none; stroke-linecap: butt; stroke-dashoffset: 0; stroke-linejoin: miter; stroke-miterlimit: 4; fill: rgb(255,255,255); fill-rule: nonzero; opacity: 1;" vector-effect="non-scaling-stroke"  transform=" translate(-3, -10)" d="M 0 20 L 0 0 L 6 0 L 6 20 z" stroke-linecap="round" />
</g>
<g transform="matrix(0.75 0 0 0.83 123.5 191.5)" id="M7sgUFeEhbOnaskRMJ5ck"  >
<path style="stroke: none; stroke-width: 1; stroke-dasharray: none; stroke-linecap: butt; stroke-dashoffset: 0; stroke-linejoin: miter; stroke-miterlimit: 4; fill: rgb(255,255,255); fill-rule: nonzero; opacity: 1;" vector-effect="non-scaling-stroke"  transform=" translate(-10, -3)" d="M 0 6 L 0 0 L 20 0 L 20 6 z" stroke-linecap="round" />
</g>
<g transform="matrix(1.09 0 0 1.09 548.5 223)" style="" id="Q86HamNtfWIU5N7WNppKY"  >
		<text xml:space="preserve" font-family="Open Sans Condensed" font-size="200" font-style="normal" font-weight="normal" line-height="0.89" style="stroke: none; stroke-width: 1; stroke-dasharray: none; stroke-linecap: butt; stroke-dashoffset: 0; stroke-linejoin: miter; stroke-miterlimit: 4; fill: rgb(0,0,0); fill-rule: nonzero; opacity: 1; white-space: pre;" ><tspan x="-229.46" y="-37.74" >Project</tspan><tspan x="-229.46" y="163.4" >BLiP</tspan></text>
</g>
<g transform="matrix(0.01 0 0 0.41 264 210)" id="3Gw0eZ2ZRNXbfNazkTlWN"  >
<path style="stroke: rgb(55,34,161); stroke-width: 0; stroke-dasharray: none; stroke-linecap: butt; stroke-dashoffset: 0; stroke-linejoin: miter; stroke-miterlimit: 4; fill: rgb(0,0,0); fill-rule: nonzero; opacity: 1;" vector-effect="non-scaling-stroke"  transform=" translate(0, 0)" d="M -485.5 -485.5 L 485.5 -485.5 L 485.5 485.5 L -485.5 485.5 z" stroke-linecap="round" />
</g>
</svg>