<?xml version="1.0" standalone="no"?>
<!DOCTYPE svg PUBLIC "-//W3C//DTD SVG 20010904//EN"
 "http://www.w3.org/TR/2001/REC-SVG-20010904/DTD/svg10.dtd">
<svg version="1.0" xmlns="http://www.w3.org/2000/svg"
 width="200.000000pt" height="200.000000pt" viewBox="0 0 200.000000 200.000000"
 preserveAspectRatio="xMidYMid meet">

<g transform="translate(0.000000,200.000000) scale(0.100000,-0.100000)"
fill="#000000" stroke="none">
<path d="M960 1853 c-72 -70 -229 -149 -396 -199 -112 -33 -276 -43 -345 -21
l-46 14 -7 -60 c-27 -260 35 -639 145 -885 138 -309 378 -539 613 -589 253
-53 528 142 709 504 121 239 189 533 203 874 l7 157 -54 -19 c-72 -25 -198
-24 -312 1 -170 37 -357 130 -435 214 -23 25 -43 45 -45 45 -1 -1 -18 -17 -37
-36z m97 -43 c141 -129 496 -242 661 -211 31 6 67 13 80 17 22 6 22 6 22 -108
0 -129 -21 -317 -51 -457 -118 -543 -436 -930 -765 -931 -304 0 -638 358 -760
814 -46 174 -56 253 -61 480 -5 211 -5 219 13 212 164 -65 551 37 754 198 25
20 47 36 49 36 2 0 28 -23 58 -50z"/>
<path d="M1096 1508 c-87 -52 -199 -157 -225 -212 -13 -26 -21 -62 -21 -93 0
-43 6 -59 33 -94 40 -54 106 -89 164 -89 81 0 142 52 163 139 13 56 10 66 -46
139 -46 61 -49 87 -20 174 13 40 23 74 22 75 -1 1 -33 -16 -70 -39z m-8 -205
c2 -14 11 -23 25 -25 19 -3 22 -10 25 -55 3 -51 2 -53 -22 -53 -19 0 -25 -6
-28 -27 -3 -26 -7 -28 -56 -31 -51 -3 -52 -2 -58 27 -5 24 -12 31 -31 31 -23
0 -24 3 -21 53 3 45 6 52 26 55 13 2 22 10 22 21 0 27 10 32 65 29 43 -3 50
-6 53 -25z"/>
<path d="M1010 1265 c0 -20 -5 -25 -25 -25 -18 0 -25 -5 -25 -20 0 -15 7 -20
25 -20 20 0 25 -5 25 -25 0 -33 37 -35 42 -2 2 16 11 23 31 25 37 4 33 36 -6
40 -21 3 -27 9 -27 28 0 17 -5 24 -20 24 -15 0 -20 -7 -20 -25z"/>
<path d="M1433 909 c-25 -9 -63 -64 -63 -91 0 -25 -53 -64 -112 -83 -29 -10
-78 -30 -109 -46 -78 -39 -119 -45 -163 -24 -42 20 -96 81 -96 109 0 16 5 18
38 13 20 -3 68 -11 105 -17 60 -9 105 -7 130 7 4 2 2 13 -3 24 -10 17 -22 19
-116 19 -90 0 -113 4 -167 26 -70 29 -146 35 -194 15 -26 -11 -36 -24 -53 -74
-44 -125 -45 -114 14 -120 31 -3 88 -23 147 -50 52 -25 122 -51 155 -58 52
-11 67 -10 117 6 77 24 192 93 261 156 49 44 125 134 149 175 9 16 -13 23 -40
13z"/>
<path d="M450 735 l0 -165 34 0 c33 0 34 2 47 53 6 28 29 103 50 165 l38 112
-85 0 -84 0 0 -165z m91 125 c28 -16 25 -58 -6 -72 -19 -8 -28 -8 -40 2 -18
15 -20 51 -3 68 15 15 24 15 49 2z"/>
</g>
</svg>
